<?xml version="1.0" encoding="UTF-8"?>
<svg id="Layer_1" data-name="Layer 1" xmlns="http://www.w3.org/2000/svg" viewBox="0 0 386.34 185.85">
  <defs>
    <style>
      .cls-1 {
        fill: #fff;
      }
    </style>
  </defs>
  <g>
    <polygon class="cls-1" points="0 132.44 13.81 129.05 42.72 151.88 35.78 123.65 50.43 120.05 63.56 173.46 50.66 176.63 20.57 152.95 27.77 182.26 13.13 185.85 0 132.44"/>
    <path class="cls-1" d="M67.32,159.99l-.04-.15c-2.12-8.63,3.3-14.57,12.99-16.95,3.81-.94,7.72-1.17,10.31-.84l-.17-.69c-1.07-4.34-4.33-6.13-9.91-4.76-4.35,1.07-7.48,2.81-10.88,5.1l-5.47-9.42c4.18-3.05,8.83-5.56,15.92-7.3,7.4-1.82,12.85-1.31,16.95,1.17,3.88,2.28,6.23,6.23,7.66,12.03l5.83,23.73-14.27,3.51-1.07-4.35c-2.14,3.84-5.5,6.92-10.92,8.26-7.86,1.93-14.93-1.18-16.94-9.35m25.48-9.58l-.47-1.91c-1.68-.23-3.85-.19-5.98,.34-4.2,1.03-6.15,3.62-5.38,6.75l.03,.15c.69,2.82,3.25,3.98,6.22,3.25,4.28-1.05,6.6-4.45,5.59-8.57"/>
    <path class="cls-1" d="M117,146.73l-4.14-16.86-4.88,1.2-2.85-11.6,4.88-1.2-2.57-10.45,14.42-3.55,2.57,10.46,9.62-2.36,2.85,11.6-9.62,2.36,3.45,14.04c.72,2.89,2.31,3.8,4.98,3.15,1.91-.47,3.61-1.46,5.15-2.73l2.78,11.29c-2.24,2.08-5.43,3.92-9.47,4.92-8.69,2.14-14.75-.43-17.17-10.26"/>
    <path class="cls-1" d="M146.62,137.83l-6.62-26.93,14.5-3.56,5.5,22.35c1.1,4.51,4.07,6.36,7.58,5.5,3.51-.86,5.5-3.94,4.39-8.44l-5.49-22.35,14.42-3.55,10.14,41.27-14.42,3.55-1.41-5.73c-1.82,4.09-4.85,8.23-10.73,9.68-8.78,2.15-15.56-2.4-17.87-11.79"/>
    <path class="cls-1" d="M188.71,98.92l14.5-3.56,2.04,8.31c.97-6.22,3.89-10.83,10.83-12.21l3.76,15.26-1.23,.3c-7.55,1.86-10.75,7.26-8.43,16.71l3.18,12.89-14.5,3.57-10.14-41.28Z"/>
    <path class="cls-1" d="M224.73,121.3l-.04-.15c-2.12-8.62,3.3-14.56,12.99-16.95,3.81-.94,7.72-1.17,10.31-.84l-.17-.69c-1.07-4.34-4.34-6.13-9.91-4.76-4.35,1.07-7.48,2.81-10.89,5.1l-5.47-9.42c4.19-3.06,8.83-5.56,15.92-7.31,7.4-1.82,12.87-1.31,16.96,1.17,3.88,2.28,6.22,6.23,7.65,12.03l5.83,23.73-14.26,3.51-1.07-4.35c-2.13,3.84-5.5,6.93-10.91,8.26-7.86,1.93-14.93-1.18-16.94-9.35m25.48-9.58l-.47-1.91c-1.68-.23-3.85-.18-6,.33-4.19,1.03-6.14,3.62-5.38,6.75l.04,.15c.69,2.82,3.24,3.98,6.22,3.25,4.27-1.05,6.59-4.45,5.58-8.57"/>
    <path class="cls-1" d="M156.76,62.56l7.22-11.08c5.98,3.64,12.17,5.19,18.49,4.43,4.14-.5,6.15-2.16,5.88-4.5l-.02-.16c-.28-2.34-2.22-3.3-9.92-4.19-11.94-1.26-21.3-3.46-22.63-14.62l-.02-.15c-1.21-10.14,5.94-18.44,19.05-20.02,9.29-1.1,16.84,.52,23.34,4.57l-6.29,11.59c-5.42-2.99-11.1-4.13-15.93-3.56-3.67,.45-5.28,2.14-5.05,4.18l.02,.15c.3,2.5,2.3,3.36,10.15,4.16,12.81,1.24,21.1,4.36,22.32,14.59l.02,.15c1.34,11.16-6.68,18.84-19.95,20.42-9.68,1.16-19.17-.78-26.67-5.98"/>
    <path class="cls-1" d="M209.82,49.55l-3.3-27.53,14.81-1.78,2.74,22.86c.55,4.61,3.27,6.81,6.86,6.38,3.59-.43,5.94-3.25,5.39-7.85l-2.73-22.86,14.74-1.76,5.05,42.2-14.74,1.77-.7-5.85c-2.31,3.84-5.82,7.58-11.83,8.3-8.97,1.07-15.15-4.28-16.3-13.87"/>
    <path class="cls-1" d="M256.33,16.05l14.82-1.77,.67,5.61c2.47-3.85,5.69-7.33,12.01-8.09,10.06-1.21,19.73,6.11,21.34,19.61l.02,.15c1.64,13.73-6.02,23.12-16.01,24.31-6.39,.77-10.48-1.67-13.59-4.55l2.11,17.63,15.59,65.07-14.42,3.54-16-66.83-6.55-54.69Zm34.36,17.33l-.02-.16c-.67-5.61-5.05-9.13-9.8-8.55-4.84,.57-8.19,5.01-7.51,10.63l.02,.15c.67,5.61,4.97,9.14,9.8,8.56,4.76-.57,8.19-4.94,7.51-10.63"/>
    <path class="cls-1" d="M310,31.23l-.02-.16c-1.47-12.31,6.18-23.13,18.66-24.62,14.51-1.73,22.5,8.15,23.98,20.56,.11,.93,.24,2.02,.29,3.05l-28.24,3.38c1.73,4.46,5.36,6.4,9.96,5.84,3.59-.43,6.16-2.08,8.85-5.41l9.01,5.81c-3.44,5.63-8.88,9.77-17.23,10.76-13.26,1.6-23.69-6.18-25.25-19.21m28.27-7.11c-1.11-4.61-4.27-7.24-8.33-6.75-3.9,.47-6.2,3.75-6.42,8.52l14.75-1.77Z"/>
    <path class="cls-1" d="M356.39,4.07l14.82-1.78,1.02,8.51c1.73-6.06,5.18-10.28,12.24-10.81l1.87,15.6-1.25,.16c-7.73,.92-11.56,5.89-10.4,15.56l1.57,13.19-14.82,1.77-5.06-42.21Z"/>
  </g>
  <g>
    <path class="cls-1" d="M21.89,83.96l1.62-2.53c3.2,2.21,6.13,3.13,9.93,2.62,3.68-.49,5.85-2.77,5.49-5.48v-.08c-.35-2.55-1.92-3.82-7.84-4.27-6.49-.52-9.67-2.17-10.27-6.68v-.08c-.59-4.31,2.79-7.99,8-8.69,4-.54,7.01,.22,10.1,2.08l-1.48,2.63c-2.83-1.74-5.5-2.3-8.32-1.92-3.56,.48-5.58,2.74-5.25,5.21v.08c.35,2.59,1.96,3.85,8.17,4.33,6.29,.51,9.41,2.37,9.97,6.57v.08c.64,4.7-2.87,8.29-8.31,9.02-4.35,.58-8.12-.4-11.8-2.89"/>
    <path class="cls-1" d="M50.27,78.76l-1.64-12.23-2.82,.38-.36-2.67,2.82-.38-.82-6.12,3.02-.4,.82,6.12,6.43-.86,.36,2.67-6.43,.86,1.59,11.85c.33,2.46,1.82,3.18,3.86,2.91,1.02-.13,1.86-.45,2.85-1.1l.34,2.59c-.98,.69-2.08,1.15-3.53,1.35-3.25,.44-5.94-.85-6.49-4.96"/>
    <path class="cls-1" d="M65.76,74.34l-1.68-12.58,3.02-.4,1.59,11.84c.5,3.77,2.86,5.84,6.43,5.36,3.45-.46,5.73-3.36,5.22-7.17l-1.55-11.59,2.98-.4,2.71,20.27-2.98,.39-.47-3.52c-1.08,2.37-2.92,4.42-6.41,4.88-4.9,.65-8.2-2.25-8.84-7.07"/>
    <path class="cls-1" d="M90.05,68.65v-.08c-.9-6.62,3.4-11.19,8.25-11.84,3.77-.5,6.47,1.21,8.34,3.28l-1.64-12.23,3.02-.4,3.83,28.61-3.02,.4-.54-4.07c-1.33,2.65-3.43,5.05-7.16,5.55-4.86,.65-10.19-2.55-11.08-9.22m17.55-2.39v-.08c-.63-4.66-4.63-7.32-8.39-6.82-3.92,.52-6.75,3.86-6.09,8.75v.08c.65,4.78,4.39,7.39,8.19,6.89,3.77-.51,6.91-4.16,6.28-8.83"/>
    <path class="cls-1" d="M116.26,46.87l3.45-.47,.45,3.33-3.45,.46-.45-3.33Zm1.24,7.73l3.02-.4,2.71,20.27-3.02,.4-2.71-20.26Z"/>
    <path class="cls-1" d="M128.96,63.48v-.09c-.77-5.72,3.04-11.17,9.16-12,6.07-.81,11.18,3.38,11.95,9.1v.08c.78,5.72-3.08,11.19-9.2,12.01-6.07,.8-11.15-3.38-11.91-9.1m18.03-2.41v-.08c-.59-4.35-4.33-7.48-8.6-6.91-4.39,.6-6.93,4.56-6.36,8.84v.08c.59,4.35,4.28,7.44,8.56,6.88,4.39-.6,6.97-4.52,6.4-8.8"/>
  </g>
</svg>